<svg width="2578" height="2578" viewBox="0 0 2578 2578" fill="none" xmlns="http://www.w3.org/2000/svg">
<path d="M0 0H2578V2578H0V0Z" fill="#443180"/>
<path d="M2367.01 1963.15C2348.14 1845.52 2271.43 1746.77 2044.27 1654.63C1965.36 1618.36 1877.38 1592.38 1851.16 1532.59C1841.85 1497.79 1840.62 1478.18 1846.5 1457.11C1863.41 1388.74 1945.02 1367.42 2009.71 1387.02C2051.37 1400.99 2090.83 1433.1 2114.6 1484.31C2225.85 1412.27 2225.61 1412.75 2303.29 1363.25C2274.86 1319.14 2259.67 1298.8 2241.05 1279.94C2174.15 1205.19 2082.98 1166.72 1937.18 1169.66C1911.94 1172.85 1886.45 1176.27 1861.21 1179.46C1788.43 1197.84 1719.08 1236.07 1678.4 1287.29C1556.36 1425.74 1591.16 1668.1 1739.66 1767.84C1885.96 1877.63 2100.87 1902.63 2128.32 2005.3C2155.03 2131.02 2035.94 2171.7 1917.57 2157.24C1830.33 2139.11 1781.81 2094.75 1729.37 2014.13C1632.82 2070 1632.82 2070 1533.57 2127.1C1557.09 2178.56 1581.84 2201.84 1621.3 2246.44C1808.03 2435.87 2275.35 2426.56 2359.17 2139.84C2362.59 2130.04 2385.14 2064.36 2367.01 1963.15V1963.15ZM1401.48 1184.85H1160.35C1160.35 1393.15 1159.37 1599.98 1159.37 1808.28C1159.37 1940.85 1166.23 2062.4 1144.66 2099.65C1109.38 2172.92 1017.97 2163.85 976.31 2149.64C933.915 2128.81 912.35 2099.16 887.354 2057.25C880.492 2045.25 875.346 2035.93 873.628 2035.2C808.201 2075.14 743.013 2115.33 677.583 2155.28C710.178 2222.18 758.207 2280.26 819.716 2317.99C911.612 2373.13 1035.12 2390.04 1164.27 2360.39C1248.32 2335.88 1320.86 2285.16 1358.84 2207.96C1413.73 2106.76 1401.97 1984.23 1401.48 1848.71C1402.71 1627.67 1401.48 1406.63 1401.48 1184.85Z" fill="#E98074"/>
</svg>
